# xmcd
#
# Track frame offsets: 
#        150
#        17380
#        33745
#        53475
#        68810
#        80850
#        94735
#        109850
#        123200
#        140802
#        161285
#        174790
#        187127
#        205460
#        224035
#        242697
#        258447
#        274850
#        287497
#        305200
#
# Disc length: 4303 seconds
#
# Revision: 8
# Processed by: cddbd v1.5.2PL0 Copyright (c) Steve Scherf et al.
# Submitted via: ExactAudioCopy v1.0b4
#
DISCID=2c10cd14
DTITLE=Roberta Miranda - Millennium
DYEAR=1999
DGENRE=Sertanejo
TTITLE0=Majestade O Sabiá
TTITLE1=Vá Com Deus
TTITLE2=A Mulher Em Mim
TTITLE3=Seu Amor Ainda É Tudo
TTITLE4=Vida Dividida
TTITLE5=Sempre Mais
TTITLE6=Máscara
TTITLE7=São Tantas Coisas
TTITLE8=Pedacinhos
TTITLE9=É Amor Demais
TTITLE10=De Tanto Amor
TTITLE11=Dói
TTITLE12=Se Chama Amor
TTITLE13=Pobre Esperança
TTITLE14=Meu País
TTITLE15=Meu Dengo
TTITLE16=Ídolo De Pano
TTITLE17=Olhos Castanhos
TTITLE18=Que Pena
TTITLE19=Cowboy Dos Sonhos
EXTD=YEAR: 1999
EXTT0=
EXTT1=
EXTT2=
EXTT3=
EXTT4=
EXTT5=
EXTT6=
EXTT7=
EXTT8=
EXTT9=
EXTT10=
EXTT11=
EXTT12=
EXTT13=
EXTT14=
EXTT15=
EXTT16=
EXTT17=
EXTT18=
EXTT19=
PLAYORDER=
